<?xml version="1.0" encoding="UTF-8"?>
<svg version="1.1" xmlns="http://www.w3.org/2000/svg" width="200" height="189">
<path d="M0 0 C66 0 132 0 200 0 C200 62.37 200 124.74 200 189 C134 189 68 189 0 189 C0 126.63 0 64.26 0 0 Z " fill="#FEFEFE" transform="translate(0,0)"/>
<path d="M0 0 C-0.66 0 -1.32 0 -2 0 C-2 1.98 -2 3.96 -2 6 C-1.01 6.33 -0.02 6.66 1 7 C0.34 9.31 -0.32 11.62 -1 14 C0.11375 13.938125 1.2275 13.87625 2.375 13.8125 C4.169375 13.9053125 4.169375 13.9053125 6 14 C8.13586678 17.20380017 8.23132175 18.01939967 8.125 21.6875 C8.10695313 22.49574219 8.08890625 23.30398437 8.0703125 24.13671875 C8.04710937 24.75160156 8.02390625 25.36648437 8 26 C7.34 26.33 6.68 26.66 6 27 C12.65551466 28.28134207 19.25390382 29.33644956 26 30 C26 31.32 26 32.64 26 34 C23.26050573 36.73949427 20.30443813 36.86585441 16.625 37.5 C12.47178968 38.22402709 8.71901156 38.92369086 5 41 C1.35809353 42.10557875 -2.29911843 43.11178842 -6 44 C-6 44.66 -6 45.32 -6 46 C-7.65 46.33 -9.3 46.66 -11 47 C-11.226875 47.94875 -11.45375 48.8975 -11.6875 49.875 C-13 53 -13 53 -15.625 54.375 C-16.40875 54.58125 -17.1925 54.7875 -18 55 C-15.80651298 54.51255844 -13.85573019 53.93667449 -11.79296875 53.03125 C-2.26562366 49.51346104 8.99380551 49.69627066 19 50 C18.67 51.65 18.34 53.3 18 55 C20.64 55.66 23.28 56.32 26 57 C26 57.99 26 58.98 26 60 C24.68 60 23.36 60 22 60 C21.77183594 60.51820312 21.54367188 61.03640625 21.30859375 61.5703125 C19.17189693 65.53755257 16.39336008 69.07339901 13.72070312 72.69140625 C13.28822266 73.28566406 12.85574219 73.87992187 12.41015625 74.4921875 C11.98492676 75.07597168 11.55969727 75.65975586 11.12158203 76.26123047 C9.79803393 78.18609705 9.79803393 78.18609705 8.68359375 81.375 C7 84 7 84 3.375 84.8828125 C1.91813123 84.98667147 0.45938227 85.06620634 -1 85.125 C-11.46499542 85.9187148 -11.46499542 85.9187148 -21 90 C-22.32391 92.53868847 -22.32391 92.53868847 -23 95 C-25.97 94.505 -25.97 94.505 -29 94 C-29 93.34 -29 92.68 -29 92 C-29.66 92 -30.32 92 -31 92 C-31 92.66 -31 93.32 -31 94 C-34.94681926 94.82607845 -38.14785727 95.39105154 -42 94 C-42.309375 93.34 -42.61875 92.68 -42.9375 92 C-43.288125 91.34 -43.63875 90.68 -44 90 C-45.98985949 89.61067967 -47.99199544 89.28112064 -50 89 C-50.57492188 88.52046875 -51.14984375 88.0409375 -51.7421875 87.546875 C-54.83148025 85.43033533 -57.55480112 85.25729246 -61.25 84.8125 C-63.14492187 84.57466797 -63.14492187 84.57466797 -65.078125 84.33203125 C-66.04234375 84.22246094 -67.0065625 84.11289063 -68 84 C-68.47985967 82.72942818 -68.9588593 81.45853152 -69.4375 80.1875 C-69.70433594 79.47980469 -69.97117187 78.77210937 -70.24609375 78.04296875 C-70.86225186 76.37327604 -71.43719235 74.68842296 -72 73 C-72.66 73 -73.32 73 -74 73 C-74.5775 71.9275 -75.155 70.855 -75.75 69.75 C-77.48583557 66.68129069 -79.4564071 64.45275029 -82 62 C-82 61.34 -82 60.68 -82 60 C-82.99 60 -83.98 60 -85 60 C-85 59.01 -85 58.02 -85 57 C-82.03 56.505 -82.03 56.505 -79 56 C-79.99 54.35 -80.98 52.7 -82 51 C-80 48 -80 48 -77.625 47.25 C-75 47 -75 47 -73.2421875 47.45703125 C-69.26881792 48.41922353 -65.16540253 48.40163541 -61.09375 48.62109375 C-58.21286901 48.97392892 -56.45476014 49.51390746 -54 51 C-54 51.66 -54 52.32 -54 53 C-53.40832031 53.04898438 -52.81664062 53.09796875 -52.20703125 53.1484375 C-47.80895528 53.56456867 -44.03071103 54.04965595 -40 56 C-42.14361118 51.71277764 -44.87380677 49.23566715 -48.57421875 46.33203125 C-49.04472656 45.89246094 -49.51523438 45.45289063 -50 45 C-50 44.34 -50 43.68 -50 43 C-50.886875 42.731875 -51.77375 42.46375 -52.6875 42.1875 C-56 41 -56 41 -58.1875 39.5625 C-66.73549604 34.81361331 -76.42438101 34.40539117 -86 34 C-86 33.34 -86 32.68 -86 32 C-84.68 32 -83.36 32 -82 32 C-82 30.68 -82 29.36 -82 28 C-79.36 28.33 -76.72 28.66 -74 29 C-74 28.34 -74 27.68 -74 27 C-72.7934375 26.5359375 -72.7934375 26.5359375 -71.5625 26.0625 C-69.10919595 25.23664655 -69.10919595 25.23664655 -68 24 C-67.95919217 22.00041636 -67.95745644 19.99954746 -68 18 C-67.34 18 -66.68 18 -66 18 C-66 17.34 -66 16.68 -66 16 C-62.91190305 14.23537317 -61.76687864 14 -58 14 C-58 13.01 -58 12.02 -58 11 C-58.66 11 -59.32 11 -60 11 C-61.125 7.25 -61.125 7.25 -60 5 C-59.34 5 -58.68 5 -58 5 C-57.67 3.35 -57.34 1.7 -57 0 C-48.9996073 2.1561342 -42.52829446 5.72987343 -36.4375 11.375 C-33.68785244 13.20809838 -31.54179222 13.8097413 -28.22265625 13.6484375 C-24.35214327 12.51925445 -21.7257838 9.78818067 -18.7265625 7.18359375 C-13.85924771 3.28555798 -6.42487654 -2.54254593 0 0 Z " fill="#C4F3F5" transform="translate(130,49)"/>
<path d="M0 0 C7.92268554 -0.62989549 14.7030931 0.12363302 22.3125 2.25 C23.05226074 2.45455811 23.79202148 2.65911621 24.55419922 2.86987305 C29.69610212 4.3901428 34.26130872 6.4941158 39 9 C39 9.66 39 10.32 39 11 C39.7425 11.2475 40.485 11.495 41.25 11.75 C44.20124062 13.09147301 45.84814974 14.60905526 48 17 C50.7921905 15.72700132 52.76190951 14.3967365 54.9375 12.25 C66.76722116 1.933676 82.84831328 -0.6695508 98 0 C96.72483566 3.60671483 95.26636146 6.07542221 92.75 8.9375 C88.70507547 13.93865145 86.52923341 19.23699874 84.1640625 25.15625 C83 28 83 28 82 29 C80.22896615 29.33101466 78.45670852 29.65666207 76.67919922 29.95092773 C68.16555878 31.36350912 60.85373031 33.24248598 53.6875 38.25 C51 40 51 40 47 40 C45.2109375 39.046875 45.2109375 39.046875 43.375 37.75 C36.5308112 33.30064706 30.26879773 31.04206755 22.125 30.3125 C16.46891853 29.5517405 16.46891853 29.5517405 14.49609375 27.23046875 C13.5625 25 13.5625 25 12.80859375 22.56640625 C10.59166807 15.5300769 5.6613862 9.29937555 1.1015625 3.59375 C0 2 0 2 0 0 Z " fill="#13A5DD" transform="translate(51,99)"/>
<path d="M0 0 C-0.66 0 -1.32 0 -2 0 C-2 1.98 -2 3.96 -2 6 C-1.01 6.33 -0.02 6.66 1 7 C0.34 9.31 -0.32 11.62 -1 14 C0.11375 13.938125 1.2275 13.87625 2.375 13.8125 C3.57125 13.874375 4.7675 13.93625 6 14 C8.13586678 17.20380017 8.23132175 18.01939967 8.125 21.6875 C8.10695313 22.49574219 8.08890625 23.30398437 8.0703125 24.13671875 C8.04710937 24.75160156 8.02390625 25.36648437 8 26 C7.01 26.495 7.01 26.495 6 27 C12.65551466 28.28134207 19.25390382 29.33644956 26 30 C26 31.32 26 32.64 26 34 C23.26050573 36.73949427 20.30443813 36.86585441 16.625 37.5 C12.47178968 38.22402709 8.71901156 38.92369086 5 41 C1.35809353 42.10557875 -2.29911843 43.11178842 -6 44 C-6 44.66 -6 45.32 -6 46 C-8.475 46.495 -8.475 46.495 -11 47 C-11.226875 47.94875 -11.45375 48.8975 -11.6875 49.875 C-13 53 -13 53 -15.4375 54.1875 C-16.283125 54.455625 -17.12875 54.72375 -18 55 C-19.01868662 55.98095748 -20.02351983 56.97702078 -21 58 C-21.66 58 -22.32 58 -23 58 C-23 58.66 -23 59.32 -23 60 C-23.66 60 -24.32 60 -25 60 C-25.33 60.99 -25.66 61.98 -26 63 C-27.98 63 -29.96 63 -32 63 C-32.52112584 58.30986742 -32.99690157 53.65487933 -33.1484375 48.9375 C-33.44932809 40.27908009 -34.19011849 32.93623881 -38 25 C-38.43441406 24.07703125 -38.86882812 23.1540625 -39.31640625 22.203125 C-42.67425555 15.57892093 -46.82783134 10.29961429 -52 5 C-52.53496094 4.44957031 -53.06992188 3.89914063 -53.62109375 3.33203125 C-54.73329146 2.20723073 -55.86387201 1.10062399 -57 0 C-48.9996073 2.1561342 -42.52829446 5.72987343 -36.4375 11.375 C-33.68785244 13.20809838 -31.54179222 13.8097413 -28.22265625 13.6484375 C-24.35214327 12.51925445 -21.7257838 9.78818067 -18.7265625 7.18359375 C-13.85924771 3.28555798 -6.42487654 -2.54254593 0 0 Z " fill="#F8F3EA" transform="translate(130,49)"/>
<path d="M0 0 C7.23962537 2.68134273 11.92281547 11.59361957 15.0625 18.25390625 C17.56240864 24.49391257 18.96297009 30.93560547 20.3125 37.5 C20.49627197 38.38526367 20.68004395 39.27052734 20.86938477 40.18261719 C21.03237061 41.01954102 21.19535645 41.85646484 21.36328125 42.71875 C21.51063721 43.47091797 21.65799316 44.22308594 21.80981445 44.99804688 C22 47 22 47 21 50 C20.32453125 49.24074219 19.6490625 48.48148438 18.953125 47.69921875 C18.05227209 46.69514311 17.15121986 45.69124628 16.25 44.6875 C15.8065625 44.18798828 15.363125 43.68847656 14.90625 43.17382812 C12.93780797 40.98827851 11.03669493 39.02727492 8.671875 37.26953125 C7.84429687 36.64111328 7.84429687 36.64111328 7 36 C7 35.34 7 34.68 7 34 C6.113125 33.731875 5.22625 33.46375 4.3125 33.1875 C1 32 1 32 -1.1875 30.5625 C-9.73549604 25.81361331 -19.42438101 25.40539117 -29 25 C-29 24.34 -29 23.68 -29 23 C-20.2462668 21.21329451 -11.72263136 19.687865 -2.76953125 19.30859375 C0.12929229 18.98559367 2.3558852 18.20362813 5 17 C4.75756442 10.75728389 4.53038316 6.67652455 0 2 C0 1.34 0 0.68 0 0 Z " fill="#8DB953" transform="translate(73,58)"/>
<path d="M0 0 C-0.556875 0.32871094 -1.11375 0.65742187 -1.6875 0.99609375 C-16.39422733 10.16295589 -23.2883836 24.17583971 -27.2890625 40.5546875 C-28.14812428 44.71783307 -28.70255203 48.76136636 -29 53 C-29.66 53 -30.32 53 -31 53 C-31.14695312 51.94425781 -31.14695312 51.94425781 -31.296875 50.8671875 C-33.97899556 33.15594312 -39.17148869 17.90902498 -52 5 C-52.53367187 4.45214844 -53.06734375 3.90429688 -53.6171875 3.33984375 C-54.72976834 2.2115485 -55.8618926 1.10254154 -57 0 C-48.9996073 2.1561342 -42.52829446 5.72987343 -36.4375 11.375 C-33.68785244 13.20809838 -31.54179222 13.8097413 -28.22265625 13.6484375 C-24.35214327 12.51925445 -21.7257838 9.78818067 -18.7265625 7.18359375 C-13.85924771 3.28555798 -6.42487654 -2.54254593 0 0 Z " fill="#A2558B" transform="translate(130,49)"/>
<path d="M0 0 C12.40016923 8.11287667 20.54526326 20.63074101 24 35 C24.39000385 37.85041947 24.59173927 40.69083355 24.75 43.5625 C24.80542969 44.29146484 24.86085937 45.02042969 24.91796875 45.77148438 C25.18777261 50.31318262 24.76131645 53.71187189 23 58 C20.90403029 54.85604543 20.64595094 53.46499373 20.1875 49.8125 C18.02199525 35.7793472 13.45187804 18.47711067 1.8125 9.26953125 C1.214375 8.85058594 0.61625 8.43164062 0 8 C1.2375 9.423125 1.2375 9.423125 2.5 10.875 C5.29796652 14.79215312 5.59071378 18.04196727 5.6640625 22.765625 C5 25 5 25 3.05078125 26.7265625 C-1.08343779 28.45224164 -4.99883696 28.77646757 -9.4375 29.125 C-11.10300596 29.27184275 -12.76837522 29.42024538 -14.43359375 29.5703125 C-15.21589355 29.63895508 -15.99819336 29.70759766 -16.80419922 29.77832031 C-19.56106923 30.05664341 -22.27618398 30.49509752 -25 31 C-25 29.68 -25 28.36 -25 27 C-22.36 27.33 -19.72 27.66 -17 28 C-17 27.34 -17 26.68 -17 26 C-15.7934375 25.5359375 -15.7934375 25.5359375 -14.5625 25.0625 C-12.10919595 24.23664655 -12.10919595 24.23664655 -11 23 C-10.95919217 21.00041636 -10.95745644 18.99954746 -11 17 C-10.34 17 -9.68 17 -9 17 C-9 16.34 -9 15.68 -9 15 C-5.91190305 13.23537317 -4.76687864 13 -1 13 C-1 12.01 -1 11.02 -1 10 C-1.66 10 -2.32 10 -3 10 C-4.125 6.25 -4.125 6.25 -3 4 C-2.34 4 -1.68 4 -1 4 C-0.67 2.68 -0.34 1.36 0 0 Z " fill="#F9F1F5" transform="translate(73,50)"/>
<path d="M0 0 C0 0.99 0 1.98 0 3 C-0.66 3 -1.32 3 -2 3 C-3.97702107 7.81898887 -4.96246715 12.82544544 -4 18 C-0.20371281 20.53085813 3.26530426 20.61390692 7.6875 21 C13.65488579 21.53395001 19.21455085 22.41313395 25 24 C25 24.33 25 24.66 25 25 C24.23816406 25.09796875 23.47632813 25.1959375 22.69140625 25.296875 C16.71059231 26.16301035 11.60882773 27.32555952 6.1796875 29.98046875 C2.57506889 31.66650004 -1.20642077 32.81618804 -5 34 C-5 34.66 -5 35.32 -5 36 C-10.41176471 40 -10.41176471 40 -13 40 C-13.28875 40.598125 -13.5775 41.19625 -13.875 41.8125 C-15 44 -15 44 -17 47 C-17.66 47 -18.32 47 -19 47 C-19 47.66 -19 48.32 -19 49 C-19.66 49 -20.32 49 -21 49 C-20.96860224 37.19444099 -18.70203436 27.8132411 -14 17 C-13.34 17 -12.68 17 -12 17 C-11.690625 15.906875 -11.38125 14.81375 -11.0625 13.6875 C-9.55656167 8.46100814 -8.78172421 6.5553716 -4.4375 3.3125 C-3.61121094 2.68988281 -2.78492187 2.06726562 -1.93359375 1.42578125 C-1.29550781 0.95527344 -0.65742187 0.48476563 0 0 Z " fill="#F7A11B" transform="translate(127,57)"/>
<path d="M0 0 C3.53217579 0.32110689 6.63449506 0.87816502 10 2 C10 2.99 10 3.98 10 5 C8.68 5 7.36 5 6 5 C5.77183594 5.51820312 5.54367188 6.03640625 5.30859375 6.5703125 C3.17189693 10.53755257 0.39336008 14.07339901 -2.27929688 17.69140625 C-2.92801758 18.58279297 -2.92801758 18.58279297 -3.58984375 19.4921875 C-4.01507324 20.07597168 -4.44030273 20.65975586 -4.87841797 21.26123047 C-6.20196607 23.18609705 -6.20196607 23.18609705 -7.31640625 26.375 C-9 29 -9 29 -12.625 29.8828125 C-14.0818416 29.98705188 -15.540604 30.06654813 -17 30.125 C-26.55145325 30.86221646 -34.56752463 33.4419052 -43 38 C-43 37.34 -43 36.68 -43 36 C-43.66 35.67 -44.32 35.34 -45 35 C-35.9338618 27.06712908 -24.80016867 24.11322346 -13 23 C-12.79246094 22.40574219 -12.58492187 21.81148437 -12.37109375 21.19921875 C-9.53670771 13.57365297 -5.8151087 5.8151087 0 0 Z " fill="#B4EFF4" transform="translate(146,104)"/>
<path d="M0 0 C-1.27516434 3.60671483 -2.73363854 6.07542221 -5.25 8.9375 C-9.29492453 13.93865145 -11.47076659 19.23699874 -13.8359375 25.15625 C-15 28 -15 28 -16 29 C-17.77103385 29.33101466 -19.54329148 29.65666207 -21.32080078 29.95092773 C-29.83444122 31.36350912 -37.14626969 33.24248598 -44.3125 38.25 C-47 40 -47 40 -51 40 C-54.25 38 -54.25 38 -57 36 C-55.0625 35.4375 -55.0625 35.4375 -53 35 C-52.67 35.33 -52.34 35.66 -52 36 C-50.00041636 36.04080783 -47.99954746 36.04254356 -46 36 C-45.67 34.68 -45.34 33.36 -45 32 C-43.88625 31.87625 -42.7725 31.7525 -41.625 31.625 C-37.96896323 31.3534187 -37.96896323 31.3534187 -36 29 C-33.66666667 28.33333333 -31.33333333 27.66666667 -29 27 C-28.34 26.34 -27.68 25.68 -27 25 C-24.3984375 24.5859375 -24.3984375 24.5859375 -21.375 24.375 C-20.37210938 24.30023438 -19.36921875 24.22546875 -18.3359375 24.1484375 C-17.17964844 24.07496094 -17.17964844 24.07496094 -16 24 C-16 23.01 -16 22.02 -16 21 C-15.34 21 -14.68 21 -14 21 C-13.855625 19.7625 -13.71125 18.525 -13.5625 17.25 C-12.81703743 11.52807111 -12.26558227 9.12084195 -8 5 C-16.49493044 4.59224334 -23.34231295 4.36111579 -31.14453125 8.125 C-33 9 -33 9 -35 9 C-35 8.34 -35 7.68 -35 7 C-23.7225681 1.25929177 -12.58255784 -0.55602138 0 0 Z " fill="#2AA4C8" transform="translate(149,99)"/>
<path d="M0 0 C0 1.65 0 3.3 0 5 C0.99 5.33 1.98 5.66 3 6 C2.34 8.31 1.68 10.62 1 13 C2.11375 12.938125 3.2275 12.87625 4.375 12.8125 C5.57125 12.874375 6.7675 12.93625 8 13 C10.13586678 16.20380017 10.23132175 17.01939967 10.125 20.6875 C10.10695312 21.49574219 10.08890625 22.30398437 10.0703125 23.13671875 C10.04710937 23.75160156 10.02390625 24.36648437 10 25 C9.34 25.33 8.68 25.66 8 26 C8.99 26.66 9.98 27.32 11 28 C8.91731407 28.08126087 6.83371342 28.13930839 4.75 28.1875 C3.00976562 28.23970703 3.00976562 28.23970703 1.234375 28.29296875 C-2.26819813 27.97570669 -3.64180619 27.58196403 -6 25 C-7.33085658 19.49842753 -5.85519736 14.75866226 -3 10 C-3 9.67 -3 9.34 -3 9 C-3.78375 9.825 -4.5675 10.65 -5.375 11.5 C-8 14 -8 14 -10 14 C-10.33 14.99 -10.66 15.98 -11 17 C-10.67 15.02 -10.34 13.04 -10 11 C-9.01 10.67 -8.02 10.34 -7 10 C-6.30748793 8.18731595 -6.30748793 8.18731595 -6 6.0625 C-5.625 3.91015625 -5.625 3.91015625 -5 2 C-2 0 -2 0 0 0 Z " fill="#F4F0E9" transform="translate(128,50)"/>
<path d="M0 0 C1.45880109 0.14107747 2.91703551 0.28802415 4.375 0.4375 C5.18710938 0.51871094 5.99921875 0.59992187 6.8359375 0.68359375 C9 1 9 1 11 2 C10.67 3.32 10.34 4.64 10 6 C8.02 4.68 6.04 3.36 4 2 C5.2375 3.423125 5.2375 3.423125 6.5 4.875 C9.29796652 8.79215312 9.59071378 12.04196727 9.6640625 16.765625 C9 19 9 19 7.05078125 20.7265625 C2.91656221 22.45224164 -0.99883696 22.77646757 -5.4375 23.125 C-7.10300596 23.27184275 -8.76837522 23.42024538 -10.43359375 23.5703125 C-11.21589355 23.63895508 -11.99819336 23.70759766 -12.80419922 23.77832031 C-15.56106923 24.05664341 -18.27618398 24.49509752 -21 25 C-21 23.68 -21 22.36 -21 21 C-18.36 21.33 -15.72 21.66 -13 22 C-13 21.34 -13 20.68 -13 20 C-11.7934375 19.5359375 -11.7934375 19.5359375 -10.5625 19.0625 C-8.10919595 18.23664655 -8.10919595 18.23664655 -7 17 C-6.95919217 15.00041636 -6.95745644 12.99954746 -7 11 C-6.34 11 -5.68 11 -5 11 C-5 10.34 -5 9.68 -5 9 C-1.91190305 7.23537317 -0.76687864 7 3 7 C3 6.01 3 5.02 3 4 C2.34 4 1.68 4 1 4 C0.67 2.68 0.34 1.36 0 0 Z " fill="#E6F2CF" transform="translate(69,56)"/>
<path d="M0 0 C0 0.99 0 1.98 0 3 C-0.66 3 -1.32 3 -2 3 C-3.97702107 7.81898887 -4.96246715 12.82544544 -4 18 C-0.20371281 20.53085813 3.26530426 20.61390692 7.6875 21 C13.65488579 21.53395001 19.21455085 22.41313395 25 24 C25 24.33 25 24.66 25 25 C24.23816406 25.09796875 23.47632813 25.1959375 22.69140625 25.296875 C16.71059231 26.16301035 11.60882773 27.32555952 6.1796875 29.98046875 C2.57506889 31.66650004 -1.20642077 32.81618804 -5 34 C-5 34.66 -5 35.32 -5 36 C-6.98 36.99 -8.96 37.98 -11 39 C-10.67 37.68 -10.34 36.36 -10 35 C-9.34 35 -8.68 35 -8 35 C-8 34.34 -8 33.68 -8 33 C-7.01 33 -6.02 33 -5 33 C-4.896875 32.38125 -4.79375 31.7625 -4.6875 31.125 C-4 29 -4 29 -1 27 C0.32 27 1.64 27 3 27 C3 26.34 3 25.68 3 25 C2.2575 24.7525 1.515 24.505 0.75 24.25 C-3.60646155 22.26979021 -5.52870593 20.22536458 -7.25 15.75 C-7.4975 14.8425 -7.745 13.935 -8 13 C-11.21543459 18.11546412 -13.1349113 23.27151329 -15 29 C-15.66 29 -16.32 29 -17 29 C-16.40075776 24.80530429 -15.42500059 20.99000166 -14 17 C-13.34 17 -12.68 17 -12 17 C-11.690625 15.906875 -11.38125 14.81375 -11.0625 13.6875 C-9.55656167 8.46100814 -8.78172421 6.5553716 -4.4375 3.3125 C-3.61121094 2.68988281 -2.78492187 2.06726562 -1.93359375 1.42578125 C-1.29550781 0.95527344 -0.65742187 0.48476563 0 0 Z " fill="#E9A72A" transform="translate(127,57)"/>
<path d="M0 0 C7.92268554 -0.62989549 14.7030931 0.12363302 22.3125 2.25 C23.05226074 2.45455811 23.79202148 2.65911621 24.55419922 2.86987305 C29.69610212 4.3901428 34.26130872 6.4941158 39 9 C39 9.66 39 10.32 39 11 C39.7425 11.2475 40.485 11.495 41.25 11.75 C44.20124062 13.09147301 45.84814974 14.60905526 48 17 C50.99220268 15.63629701 53.29026529 14.05091917 55.75 11.875 C56.36359375 11.33617188 56.9771875 10.79734375 57.609375 10.2421875 C58.06828125 9.83226563 58.5271875 9.42234375 59 9 C59.66 9.33 60.32 9.66 61 10 C59 13 59 13 56 14 C54.29144978 17.00007271 54.29144978 17.00007271 53 20 C51.02 20 49.04 20 47 20 C47 19.34 47 18.68 47 18 C45.02 17.67 43.04 17.34 41 17 C40.505 14.525 40.505 14.525 40 12 C38.906875 11.87625 37.81375 11.7525 36.6875 11.625 C33 11 33 11 30 9 C30 8.34 30 7.68 30 7 C27.69 6.67 25.38 6.34 23 6 C23 5.34 23 4.68 23 4 C17.06 4 11.12 4 5 4 C5 4.66 5 5.32 5 6 C6.32 6 7.64 6 9 6 C9 7.32 9 8.64 9 10 C9.66 10 10.32 10 11 10 C11.50615298 11.26839526 12.00469099 12.53983102 12.5 13.8125 C12.7784375 14.52019531 13.056875 15.22789063 13.34375 15.95703125 C14 18 14 18 14 21 C14.66 21 15.32 21 16 21 C16.625 23.375 16.625 23.375 17 26 C16.34 26.66 15.68 27.32 15 28 C14.79246094 27.40574219 14.58492187 26.81148437 14.37109375 26.19921875 C11.37546947 18.13986138 7.24809374 10.95146616 1.78125 4.30078125 C0 2 0 2 0 0 Z " fill="#3BA0C3" transform="translate(51,99)"/>
<path d="M0 0 C0.19916016 1.12148437 0.19916016 1.12148437 0.40234375 2.265625 C0.57894531 3.25046875 0.75554687 4.2353125 0.9375 5.25 C1.11152344 6.22453125 1.28554687 7.1990625 1.46484375 8.203125 C1.78748635 9.88934471 2.14454451 11.57020318 2.56640625 13.234375 C3 15 3 15 3 17 C2.34 17 1.68 17 1 17 C1 17.66 1 18.32 1 19 C0.34 19 -0.32 19 -1 19 C-1 18.34 -1 17.68 -1 17 C-1.66 17 -2.32 17 -3 17 C-3 16.34 -3 15.68 -3 15 C-3.639375 14.87625 -4.27875 14.7525 -4.9375 14.625 C-8.97011276 13.8020178 -12.98423907 12.90114025 -17 12 C-17.33 10.68 -17.66 9.36 -18 8 C-18.639375 7.87625 -19.27875 7.7525 -19.9375 7.625 C-20.618125 7.41875 -21.29875 7.2125 -22 7 C-22.33 6.34 -22.66 5.68 -23 5 C-21.083412 4.97287847 -19.1667127 4.95354903 -17.25 4.9375 C-15.64898437 4.92009766 -15.64898437 4.92009766 -14.015625 4.90234375 C-11.46631499 4.98489913 -9.42066409 5.25382442 -7 6 C-7 4.68 -7 3.36 -7 2 C-1.125 0 -1.125 0 0 0 Z " fill="#87BC41" transform="translate(84,74)"/>
<path d="M0 0 C5.61 0.33 11.22 0.66 17 1 C17 2.32 17 3.64 17 5 C14.26050573 7.73949427 11.30443813 7.86585441 7.625 8.5 C3.47178968 9.22402709 -0.28098844 9.92369086 -4 12 C-7.64190647 13.10557875 -11.29911843 14.11178842 -15 15 C-15 15.66 -15 16.32 -15 17 C-16.65 17.33 -18.3 17.66 -20 18 C-20.226875 18.94875 -20.45375 19.8975 -20.6875 20.875 C-22 24 -22 24 -24.4375 25.1875 C-25.283125 25.455625 -26.12875 25.72375 -27 26 C-28.01868662 26.98095748 -29.02351983 27.97702078 -30 29 C-30.66 29 -31.32 29 -32 29 C-32 29.66 -32 30.32 -32 31 C-32.66 31 -33.32 31 -34 31 C-34.05416188 29.39620659 -34.09286638 27.79188594 -34.125 26.1875 C-34.14820312 25.29417969 -34.17140625 24.40085937 -34.1953125 23.48046875 C-34 21 -34 21 -32 18 C-32.33 21.3 -32.66 24.6 -33 28 C-32.34 28 -31.68 28 -31 28 C-31 27.34 -31 26.68 -31 26 C-30.34 26 -29.68 26 -29 26 C-28.773125 25.443125 -28.54625 24.88625 -28.3125 24.3125 C-25.61159416 19.55376114 -22.20988728 16.63739315 -17 15 C-17 14.34 -17 13.68 -17 13 C-13.57011052 10.59405189 -10.09620225 9.21137916 -6.125 7.9375 C-4.55105469 7.43089844 -4.55105469 7.43089844 -2.9453125 6.9140625 C1.6781823 5.4791848 6.30189249 4.17452688 11 3 C7.37 2.34 3.74 1.68 0 1 C0 0.67 0 0.34 0 0 Z " fill="#FCF9EB" transform="translate(139,78)"/>
<path d="M0 0 C3.73487777 0.4979837 5.81237635 0.87491756 9 3 C9.33 2.67 9.66 2.34 10 2 C11.66617115 1.95936168 13.33388095 1.957279 15 2 C15 1.34 15 0.68 15 0 C15.66 0 16.32 0 17 0 C18.33108264 4.41274065 17.60639765 6.68822138 15.6875 10.8125 C13.58475829 15.53782791 12.06867012 19.94810488 11 25 C10.01 24.34 9.02 23.68 8 23 C8 21 8 19 8 17 C6.60907108 14.37612865 6.60907108 14.37612865 5 12 C4.855625 11.360625 4.71125 10.72125 4.5625 10.0625 C3.71783943 6.96541126 1.78155011 4.64359048 0 2 C0 1.34 0 0.68 0 0 Z " fill="#B44696" transform="translate(91,63)"/>
<path d="M0 0 C3.1875 -0.3125 3.1875 -0.3125 7 0 C10.9382009 3.32996082 13.33986449 6.91049768 15.75 11.4375 C16.34296875 12.52933594 16.9359375 13.62117188 17.546875 14.74609375 C18.95727606 17.90433053 19.60788359 20.5793003 20 24 C20.70382813 23.94199219 21.40765625 23.88398438 22.1328125 23.82421875 C30.82374948 23.42711327 41.09761875 24.70160823 47.90234375 30.66796875 C48.44568359 31.32732422 48.44568359 31.32732422 49 32 C47.60301364 31.71390693 46.2074567 31.42083095 44.8125 31.125 C44.03519531 30.96257812 43.25789063 30.80015625 42.45703125 30.6328125 C40 30 40 30 37.78125 29 C33.81829871 27.57511864 29.86247357 27.27701008 25.6875 26.875 C24.85154297 26.78863281 24.01558594 26.70226562 23.15429688 26.61328125 C21.1035237 26.40234458 19.05184097 26.20028354 17 26 C16.52014033 24.72942818 16.0411407 23.45853152 15.5625 22.1875 C15.16224609 21.12595703 15.16224609 21.12595703 14.75390625 20.04296875 C14.13774814 18.37327604 13.56280765 16.68842296 13 15 C12.34 15 11.68 15 11 15 C10.4225 13.9275 9.845 12.855 9.25 11.75 C7.51416443 8.68129069 5.5435929 6.45275029 3 4 C3 3.34 3 2.68 3 2 C2.01 2 1.02 2 0 2 C0 1.34 0 0.68 0 0 Z " fill="#6AB29B" transform="translate(45,107)"/>
<path d="M0 0 C-0.33 0.66 -0.66 1.32 -1 2 C-1.66 2 -2.32 2 -3 2 C-3.22816406 2.51820312 -3.45632812 3.03640625 -3.69140625 3.5703125 C-5.82810307 7.53755257 -8.60663992 11.07339901 -11.27929688 14.69140625 C-11.92801758 15.58279297 -11.92801758 15.58279297 -12.58984375 16.4921875 C-13.01507324 17.07597168 -13.44030273 17.65975586 -13.87841797 18.26123047 C-15.20196607 20.18609705 -15.20196607 20.18609705 -16.31640625 23.375 C-18 26 -18 26 -21.625 26.8828125 C-23.08181946 26.98736092 -24.54059187 27.06685183 -26 27.125 C-32.40556923 27.60811867 -37.8158813 28.60786271 -43.80078125 31.09765625 C-45.85690913 31.94128954 -47.83394322 32.51920479 -50 33 C-43.94966477 26.04508034 -34.0099449 23.92615338 -25.125 23.1875 C-23.41751452 23.10502355 -21.70912943 23.03443301 -20 23 C-19.82984375 22.43152344 -19.6596875 21.86304688 -19.484375 21.27734375 C-17.10845601 13.70726142 -13.62907636 7.4807069 -9 1 C-6.04335481 -0.4783226 -3.25770263 -0.06032783 0 0 Z " fill="#62B59B" transform="translate(155,107)"/>
<path d="M0 0 C5.37528741 1.99084719 8.21676197 6.54155678 10.8125 11.375 C11.4003125 12.674375 11.4003125 12.674375 12 14 C11.34 14.33 10.68 14.66 10 15 C9.34 14.34 8.68 13.68 8 13 C7.34 14.65 6.68 16.3 6 18 C5.34 18 4.68 18 4 18 C4 19.32 4 20.64 4 22 C-0.29 22 -4.58 22 -9 22 C-8.01 23.32 -7.02 24.64 -6 26 C-6 26.66 -6 27.32 -6 28 C-7.19625 27.690625 -8.3925 27.38125 -9.625 27.0625 C-16.00819185 25.62245192 -22.48230791 25.35230768 -29 25 C-29 24.34 -29 23.68 -29 23 C-20.2462668 21.21329451 -11.72263136 19.687865 -2.76953125 19.30859375 C0.12929229 18.98559367 2.3558852 18.20362813 5 17 C4.75756442 10.75728389 4.53038316 6.67652455 0 2 C0 1.34 0 0.68 0 0 Z " fill="#9FBC70" transform="translate(73,58)"/>
<path d="M0 0 C-1.60812919 4.38915995 -3.36350872 6.9695906 -7 10 C-8.32 10 -9.64 10 -11 10 C-11.33 11.32 -11.66 12.64 -12 14 C-12.8125 12.3125 -12.8125 12.3125 -13 10 C-11.38481721 8.28339285 -9.71928551 6.61233151 -8 5 C-16.49493044 4.59224334 -23.34231295 4.36111579 -31.14453125 8.125 C-33 9 -33 9 -35 9 C-35 8.34 -35 7.68 -35 7 C-23.7225681 1.25929177 -12.58255784 -0.55602138 0 0 Z " fill="#329FC7" transform="translate(149,99)"/>
<path d="M0 0 C0 0.99 0 1.98 0 3 C-0.66 3 -1.32 3 -2 3 C-3.97702107 7.81898887 -4.96246715 12.82544544 -4 18 C-1.06419434 19.95720377 -0.10177164 20.30195175 3.23046875 20.6328125 C4.03291016 20.71660156 4.83535156 20.80039063 5.66210938 20.88671875 C6.49548828 20.96535156 7.32886719 21.04398438 8.1875 21.125 C9.03248047 21.21136719 9.87746094 21.29773438 10.74804688 21.38671875 C12.83128923 21.5985739 14.91556042 21.80026777 17 22 C17 22.33 17 22.66 17 23 C13.91698584 23.11644156 10.83453877 23.18732432 7.75 23.25 C6.44095703 23.30027344 6.44095703 23.30027344 5.10546875 23.3515625 C-1.37093871 23.45043895 -1.37093871 23.45043895 -4.53125 21.1875 C-6.29077801 18.56692637 -7.17220029 16.03526561 -8 13 C-11.21543459 18.11546412 -13.1349113 23.27151329 -15 29 C-15.66 29 -16.32 29 -17 29 C-16.40075776 24.80530429 -15.42500059 20.99000166 -14 17 C-13.34 17 -12.68 17 -12 17 C-11.690625 15.906875 -11.38125 14.81375 -11.0625 13.6875 C-9.55656167 8.46100814 -8.78172421 6.5553716 -4.4375 3.3125 C-3.61121094 2.68988281 -2.78492187 2.06726562 -1.93359375 1.42578125 C-1.29550781 0.95527344 -0.65742187 0.48476563 0 0 Z " fill="#DAB152" transform="translate(127,57)"/>
<path d="M0 0 C11.53535354 4.74747475 11.53535354 4.74747475 16 10 C16.928125 10.86625 17.85625 11.7325 18.8125 12.625 C21 15 21 15 21 18 C18.68547078 17.5520266 16.37339961 17.09133539 14.0625 16.625 C12.13083984 16.24214844 12.13083984 16.24214844 10.16015625 15.8515625 C9.11730469 15.57054688 8.07445313 15.28953125 7 15 C6.67 14.34 6.34 13.68 6 13 C5.01 12.67 4.02 12.34 3 12 C3 11.34 3 10.68 3 10 C4.32 9.67 5.64 9.34 7 9 C6.21625 8.443125 5.4325 7.88625 4.625 7.3125 C1.86872067 4.88434917 1.19858197 3.37731274 0 0 Z " fill="#F8F9F2" transform="translate(69,87)"/>
<path d="M0 0 C-0.5259375 1.175625 -0.5259375 1.175625 -1.0625 2.375 C-1.371875 3.24125 -1.68125 4.1075 -2 5 C-1.67 5.66 -1.34 6.32 -1 7 C1.02463255 7.65213292 1.02463255 7.65213292 3 8 C3.33 6.68 3.66 5.36 4 4 C4.99 4 5.98 4 7 4 C7 5.32 7 6.64 7 8 C6.01 8.495 6.01 8.495 5 9 C5 10.32 5 11.64 5 13 C4.34 13 3.68 13 3 13 C3 12.01 3 11.02 3 10 C1.700625 9.87625 0.40125 9.7525 -0.9375 9.625 C-3.15234375 9.4140625 -3.15234375 9.4140625 -5 9 C-5.33 8.34 -5.66 7.68 -6 7 C-5.34 5.68 -4.68 4.36 -4 3 C-14.395 3.99 -14.395 3.99 -25 5 C-23 2 -23 2 -21.07421875 1.26953125 C-14.01408156 -0.08240991 -7.17518765 -0.20243476 0 0 Z " fill="#DFFDFE" transform="translate(153,96)"/>
<path d="M0 0 C0.99 0 1.98 0 3 0 C11.67469566 10.9133268 16.01011678 26.25118825 15 40 C14.34 40 13.68 40 13 40 C12.91363281 39.319375 12.82726562 38.63875 12.73828125 37.9375 C11.02835213 26.14055784 7.82918002 14.45232279 2 4 C1.32767768 2.66950952 0.65968292 1.3368024 0 0 Z " fill="#EBF9D2" transform="translate(81,65)"/>
<path d="M0 0 C-6.3656148 2.92818281 -6.3656148 2.92818281 -10.3125 3.375 C-11.6428125 3.684375 -11.6428125 3.684375 -13 4 C-13.70211894 5.65204456 -14.36971413 7.31923769 -15 9 C-17.625 9.8125 -17.625 9.8125 -20 10 C-20.226875 10.94875 -20.45375 11.8975 -20.6875 12.875 C-22 16 -22 16 -24.4375 17.1875 C-25.283125 17.455625 -26.12875 17.72375 -27 18 C-28.01868662 18.98095748 -29.02351983 19.97702078 -30 21 C-30.66 21 -31.32 21 -32 21 C-32 21.66 -32 22.32 -32 23 C-32.66 23 -33.32 23 -34 23 C-34.05416188 21.39620659 -34.09286638 19.79188594 -34.125 18.1875 C-34.14820312 17.29417969 -34.17140625 16.40085937 -34.1953125 15.48046875 C-34 13 -34 13 -32 10 C-32.33 13.3 -32.66 16.6 -33 20 C-32.34 20 -31.68 20 -31 20 C-31 19.34 -31 18.68 -31 18 C-30.34 18 -29.68 18 -29 18 C-28.773125 17.443125 -28.54625 16.88625 -28.3125 16.3125 C-25.61159416 11.55376114 -22.20988728 8.63739315 -17 7 C-17 6.34 -17 5.68 -17 5 C-12.10976211 1.48514152 -5.98867512 -1.97399536 0 0 Z " fill="#F6E8B9" transform="translate(139,86)"/>
<path d="M0 0 C1.33985898 1.66142513 2.67082708 3.33001351 4 5 C4.53238281 5.6084375 5.06476562 6.216875 5.61328125 6.84375 C10.94048186 13.17496846 14.48750676 20.11806557 17 28 C16.67 28.99 16.34 29.98 16 31 C17.98 31 19.96 31 22 31 C22 31.33 22 31.66 22 32 C19.69 32 17.38 32 15 32 C14.79246094 31.41734375 14.58492187 30.8346875 14.37109375 30.234375 C10.20602974 17.73611914 10.20602974 17.73611914 1.546875 8.796875 C-0.68173446 8.30630059 -2.72138574 8.0206677 -5 8 C-5 7.67 -5 7.34 -5 7 C-3.02 6.67 -1.04 6.34 1 6 C0.649375 5.38125 0.29875 4.7625 -0.0625 4.125 C-0.371875 3.42375 -0.68125 2.7225 -1 2 C-0.67 1.34 -0.34 0.68 0 0 Z " fill="#B6EFEF" transform="translate(50,99)"/>
<path d="M0 0 C1 2 1 2 0.25 4.4375 C-1 7 -1 7 -2.5 8.375 C-4.80145734 10.86824545 -5.20622822 13.76385352 -6 17 C-7.32 17.33 -8.64 17.66 -10 18 C-10.103125 18.61875 -10.20625 19.2375 -10.3125 19.875 C-11 22 -11 22 -14 24 C-15.20242638 20.39272087 -14.79820732 19.8183803 -13.1875 16.5 C-9.84084533 10.05388674 -5.04690142 5.15469931 0 0 Z " fill="#F7F4F6" transform="translate(122,53)"/>
<path d="M0 0 C2.30441554 3.45662331 2.25860135 4.94857881 2 9 C1.67 9.66 1.34 10.32 1 11 C-2.375 11.1875 -2.375 11.1875 -6 11 C-8 8 -8 8 -7.75 4.375 C-7.5025 3.26125 -7.255 2.1475 -7 1 C-4.46578263 -0.26710868 -2.80561762 -0.28056176 0 0 Z " fill="#98B771" transform="translate(71,64)"/>
<path d="M0 0 C3.625 0.375 3.625 0.375 7 1 C8.32850242 7.40096618 8.32850242 7.40096618 6.9375 9.9375 C4.23787512 11.41793945 2.02429981 11.20161999 -1 11 C-2.50662097 7.98675805 -2.17770373 5.31713623 -2 2 C-1.34 1.34 -0.68 0.68 0 0 Z " fill="#DDB15F" transform="translate(129,64)"/>
<path d="M0 0 C3 0.25 3 0.25 5 2.25 C5.33302312 5.3804173 5.47671956 7.42898298 3.875 10.1875 C2 11.25 2 11.25 -1.125 11.0625 C-2.07375 10.794375 -3.0225 10.52625 -4 10.25 C-5.38125018 7.48749964 -5.19079306 5.30268901 -5 2.25 C-3 0.25 -3 0.25 0 0 Z " fill="#A75A91" transform="translate(100,48.75)"/>
<path d="M0 0 C7.44968348 0.63401562 13.39631584 3.67579782 20 7 C20.33 6.67 20.66 6.34 21 6 C24.83319229 5.82576399 28.26835686 6.12196632 32 7 C31.67 7.99 31.34 8.98 31 10 C28.03 9.505 28.03 9.505 25 9 C25 8.34 25 7.68 25 7 C24.34 7 23.68 7 23 7 C23 7.66 23 8.32 23 9 C19.05318074 9.82607845 15.85214273 10.39105154 12 9 C11.690625 8.34 11.38125 7.68 11.0625 7 C10.711875 6.34 10.36125 5.68 10 5 C8.00239695 4.65259077 6.00212229 4.32033957 4 4 C1.625 1.9375 1.625 1.9375 0 0 Z " fill="#E5F7F4" transform="translate(76,134)"/>
<path d="M0 0 C1.98 0 3.96 0 6 0 C6 0.99 6 1.98 6 3 C5.34 3 4.68 3 4 3 C3.855625 3.763125 3.71125 4.52625 3.5625 5.3125 C3 8 3 8 2 11 C3.093125 10.773125 4.18625 10.54625 5.3125 10.3125 C10.86916676 9.57427138 15.75644551 11.29391701 21 13 C21 13.66 21 14.32 21 15 C21.66 15.33 22.32 15.66 23 16 C23 16.66 23 17.32 23 18 C21.68 17.67 20.36 17.34 19 17 C19 16.34 19 15.68 19 15 C17.81921875 14.87882812 16.6384375 14.75765625 15.421875 14.6328125 C13.86453957 14.4639448 12.30725023 14.29465165 10.75 14.125 C9.58404297 14.00705078 9.58404297 14.00705078 8.39453125 13.88671875 C1.27568856 13.09573623 1.27568856 13.09573623 -2 11 C-1.01 10.67 -0.02 10.34 1 10 C0.67 6.7 0.34 3.4 0 0 Z " fill="#FBF9ED" transform="translate(137,65)"/>
<path d="M0 0 C-3.27502921 2.18335281 -5.82010703 2.8049939 -9.625 3.75 C-15.305313 5.29917627 -19.51533698 7.19882518 -24.1328125 10.828125 C-26 12 -26 12 -30 12 C-33.25 10 -33.25 10 -36 8 C-34.0625 7.4375 -34.0625 7.4375 -32 7 C-31.67 7.33 -31.34 7.66 -31 8 C-29.00041636 8.04080783 -26.99954746 8.04254356 -25 8 C-24.67 6.68 -24.34 5.36 -24 4 C-22.88625 3.87625 -21.7725 3.7525 -20.625 3.625 C-16.96896323 3.3534187 -16.96896323 3.3534187 -15 1 C-13.046875 0.5859375 -13.046875 0.5859375 -10.75 0.375 C-9.95207031 0.30152344 -9.15414062 0.22804688 -8.33203125 0.15234375 C-5.5487177 -0.02948075 -2.78812854 -0.07149048 0 0 Z " fill="#309DC0" transform="translate(128,127)"/>
<path d="M0 0 C1.32 0 2.64 0 4 0 C4 0.99 4 1.98 4 3 C4.99 3.33 5.98 3.66 7 4 C5.41219582 6.5801818 4.56201895 7.82067158 1.625 8.7578125 C0.75875 8.87898438 -0.1075 9.00015625 -1 9.125 C-4.51293029 9.63730233 -5.95733874 9.97155916 -9 12 C-11.1875 11.625 -11.1875 11.625 -13 11 C-12.34 10.34 -11.68 9.68 -11 9 C-9.68 9 -8.36 9 -7 9 C-6.8453125 8.1028125 -6.8453125 8.1028125 -6.6875 7.1875 C-5.89496146 4.66578648 -5.08408591 3.60314301 -3 2 C-2.01 2 -1.02 2 0 2 C0 1.34 0 0.68 0 0 Z " fill="#F4FBF4" transform="translate(124,93)"/>
<path d="M0 0 C3 1 3 1 4 3 C4.06950541 4.54023996 4.08452357 6.08334988 4.0625 7.625 C4.05347656 8.44226563 4.04445312 9.25953125 4.03515625 10.1015625 C4.02355469 10.72804688 4.01195312 11.35453125 4 12 C3.01 12.495 3.01 12.495 2 13 C2.99 13.66 3.98 14.32 5 15 C2.91731407 15.08126087 0.83371342 15.13930839 -1.25 15.1875 C-2.41015625 15.22230469 -3.5703125 15.25710937 -4.765625 15.29296875 C-8.27047434 14.97550051 -9.66303527 14.61190175 -12 12 C-12.390625 9.73828125 -12.390625 9.73828125 -12.25 7.3125 C-12.21390625 6.50425781 -12.1778125 5.69601563 -12.140625 4.86328125 C-12.09421875 4.24839844 -12.0478125 3.63351563 -12 3 C-11.67 3 -11.34 3 -11 3 C-11 5.31 -11 7.62 -11 10 C-10.34 9.67 -9.68 9.34 -9 9 C-8.34444881 6.47266765 -8.34444881 6.47266765 -8 4 C-7.67 4 -7.34 4 -7 4 C-6.67 6.64 -6.34 9.28 -6 12 C-1.66770285 11.1395861 -1.66770285 11.1395861 2 9 C2.04092937 6.66702567 2.04241723 4.33294775 2 2 C1.34 2 0.68 2 0 2 C0 1.34 0 0.68 0 0 Z " fill="#FCEBBC" transform="translate(134,63)"/>
<path d="M0 0 C2 3.75 2 3.75 2 6 C2.70382813 5.94199219 3.40765625 5.88398438 4.1328125 5.82421875 C12.82374948 5.42711327 23.09761875 6.70160823 29.90234375 12.66796875 C30.26457031 13.10753906 30.62679687 13.54710937 31 14 C29.60301364 13.71390693 28.2074567 13.42083095 26.8125 13.125 C26.03519531 12.96257812 25.25789063 12.80015625 24.45703125 12.6328125 C22 12 22 12 19.78125 11 C15.81829871 9.57511864 11.86247357 9.27701008 7.6875 8.875 C6.43356445 8.74544922 6.43356445 8.74544922 5.15429688 8.61328125 C3.1035237 8.40234458 1.05184097 8.20028354 -1 8 C-1.625 5.6875 -1.625 5.6875 -2 3 C-1.34 2.01 -0.68 1.02 0 0 Z " fill="#84B3A0" transform="translate(63,125)"/>
<path d="M0 0 C6.34339651 1.80610595 11.56938255 4.25627734 17 8 C16.01 9.98 15.02 11.96 14 14 C13.360625 13.34 12.72125 12.68 12.0625 12 C8.79609901 8.71471808 5.29028428 5.70706564 1.79296875 2.671875 C1.20128906 2.12015625 0.60960938 1.5684375 0 1 C0 0.67 0 0.34 0 0 Z " fill="#B35894" transform="translate(73,49)"/>
<path d="M0 0 C1.53166168 4.08443115 0.63081652 7.79455657 0 12 C0.33 11.34 0.66 10.68 1 10 C2.98 10 4.96 10 7 10 C6.01 10.495 6.01 10.495 5 11 C4.29848848 12.3153341 3.63474075 13.65117592 3 15 C2.01 16.485 2.01 16.485 1 18 C0.34 18 -0.32 18 -1 18 C-1 18.66 -1 19.32 -1 20 C-1.66 20 -2.32 20 -3 20 C-2.88581333 17.41577541 -2.75907638 14.83320487 -2.625 12.25 C-2.5940625 11.52039063 -2.563125 10.79078125 -2.53125 10.0390625 C-2.3251506 6.26057344 -2.08487157 3.22053332 0 0 Z " fill="#E4AE60" transform="translate(109,86)"/>
<path d="M0 0 C2.875 -0.125 2.875 -0.125 6 0 C6.66 0.66 7.32 1.32 8 2 C7.23816406 2.09796875 6.47632813 2.1959375 5.69140625 2.296875 C-0.34583529 3.17118214 -5.4725118 4.36657511 -10.953125 7.046875 C-13.89315191 8.41589516 -16.86270353 9.19898813 -20 10 C-19.81640625 8.140625 -19.81640625 8.140625 -19 6 C-13.01787986 2.59366094 -6.77971229 1.4883236 0 2 C0 1.34 0 0.68 0 0 Z " fill="#E0B14F" transform="translate(144,80)"/>
<path d="M0 0 C1.13643966 3.40931897 0.86747764 4.00335456 -0.4375 7.1875 C-0.72496094 7.90292969 -1.01242188 8.61835937 -1.30859375 9.35546875 C-1.53675781 9.89816406 -1.76492187 10.44085938 -2 11 C-0.68 11.33 0.64 11.66 2 12 C1.6875 13.9375 1.6875 13.9375 1 16 C0.01 16.33 -0.98 16.66 -2 17 C-4.6875 15.5625 -4.6875 15.5625 -7 14 C-6.731875 13.505 -6.46375 13.01 -6.1875 12.5 C-4.83965462 9.66243079 -3.81080874 6.77026431 -2.78125 3.8046875 C-2 2 -2 2 0 0 Z " fill="#F79F26" transform="translate(119,69)"/>
<path d="M0 0 C0.33 0 0.66 0 1 0 C1.33 2.31 1.66 4.62 2 7 C4.64 7 7.28 7 10 7 C10.33 4.69 10.66 2.38 11 0 C11.33 0 11.66 0 12 0 C12 1.98 12 3.96 12 6 C12.99 6.33 13.98 6.66 15 7 C12.15695013 9.84304987 9.99733936 11.32780773 6 11.5625 C2.45280713 11.40798213 1.94396284 10.95330237 -1 8.5 C-1.66 7.675 -2.32 6.85 -3 6 C-2.01 6 -1.02 6 0 6 C0 4.02 0 2.04 0 0 Z " fill="#F3D6EE" transform="translate(94,52)"/>
<path d="M0 0 C11.70066792 4.81551132 11.70066792 4.81551132 16 10 C16.46277344 10.54398438 16.92554687 11.08796875 17.40234375 11.6484375 C18.6191008 13.08427823 19.81191162 14.54034857 21 16 C16.98577764 15.38242733 14.17090547 13.46625981 11 11 C10.32421875 8.86328125 10.32421875 8.86328125 10 7 C8.72125 6.773125 7.4425 6.54625 6.125 6.3125 C3.9453125 5.92578125 3.9453125 5.92578125 2 5 C0.7421875 2.41796875 0.7421875 2.41796875 0 0 Z " fill="#F0F9DA" transform="translate(69,87)"/>
<path d="M0 0 C0 0.33 0 0.66 0 1 C-1.09957031 1.09796875 -2.19914062 1.1959375 -3.33203125 1.296875 C-11.22965275 2.07062544 -18.40600047 3.02133457 -25.80078125 6.09765625 C-27.85690913 6.94128954 -29.83394322 7.51920479 -32 8 C-23.69253223 -1.46240841 -11.5164043 -1.76771555 0 0 Z " fill="#87B1A6" transform="translate(137,132)"/>
<path d="M0 0 C0.99 0 1.98 0 3 0 C3 2.97 3 5.94 3 9 C2.34 8.01 1.68 7.02 1 6 C-2.21543459 11.11546412 -4.1349113 16.27151329 -6 22 C-6.66 22 -7.32 22 -8 22 C-7.40075776 17.80530429 -6.42500059 13.99000166 -5 10 C-4.34 10 -3.68 10 -3 10 C-2.690625 8.906875 -2.38125 7.81375 -2.0625 6.6875 C-1.41662103 4.44592006 -0.7376883 2.2130649 0 0 Z " fill="#E6AF56" transform="translate(118,64)"/>
<path d="M0 0 C4.20624526 0.82347618 8.44091074 0.93183724 12.71484375 1.1640625 C15.57558523 1.51845832 17.33272551 2.06899354 19.7734375 3.54296875 C19.7734375 3.87296875 19.7734375 4.20296875 19.7734375 4.54296875 C18.33604237 4.57008941 16.89849887 4.58941942 15.4609375 4.60546875 C14.26017578 4.62287109 14.26017578 4.62287109 13.03515625 4.640625 C10.7734375 4.54296875 10.7734375 4.54296875 7.7734375 3.54296875 C5.03478463 3.47245761 2.32316162 3.4493911 -0.4140625 3.48046875 C-1.53844727 3.48723633 -1.53844727 3.48723633 -2.68554688 3.49414062 C-4.53258633 3.50590521 -6.37958463 3.5238401 -8.2265625 3.54296875 C-6.2265625 0.54296875 -6.2265625 0.54296875 -4.4140625 -0.20703125 C-2.2265625 -0.45703125 -2.2265625 -0.45703125 0 0 Z " fill="#D9F8FB" transform="translate(56.2265625,96.45703125)"/>
<path d="M0 0 C2.13586678 3.20380017 2.23132175 4.01939967 2.125 7.6875 C2.10695313 8.49574219 2.08890625 9.30398437 2.0703125 10.13671875 C2.04710938 10.75160156 2.02390625 11.36648437 2 12 C2.66 12 3.32 12 4 12 C4.33 15.3 4.66 18.6 5 22 C3.68 22 2.36 22 1 22 C0.08839714 14.64206267 -0.11459026 7.41017023 0 0 Z " fill="#ECDDE1" transform="translate(97,90)"/>
<path d="M0 0 C5.53124193 5.53124193 8 17.37746976 8 25 C7.01 24.67 6.02 24.34 5 24 C4.855625 22.7625 4.71125 21.525 4.5625 20.25 C4.21311498 17.43495501 3.79620634 14.7298503 3 12 C2.34 12 1.68 12 1 12 C0.67 8.04 0.34 4.08 0 0 Z " fill="#98C16B" transform="translate(85,72)"/>
<path d="M0 0 C1.41702513 0.14230808 2.8336096 0.28900746 4.25 0.4375 C5.43335937 0.55931641 5.43335937 0.55931641 6.640625 0.68359375 C8.82364639 0.97634993 10.8773182 1.42064419 13 2 C12.33613281 2.32613281 11.67226562 2.65226562 10.98828125 2.98828125 C6.55939564 5.18009471 2.18006181 7.35262752 -2 10 C-2.33 9.01 -2.66 8.02 -3 7 C-2.67 6.34 -2.34 5.68 -2 5 C-1.34 5 -0.68 5 0 5 C0 3.68 0 2.36 0 1 C0 0.67 0 0.34 0 0 Z " fill="#F7F0F9" transform="translate(111,48)"/>
<path d="M0 0 C0.99 0 1.98 0 3 0 C3 0.99 3 1.98 3 3 C4.98 3 6.96 3 9 3 C9 3.33 9 3.66 9 4 C8.071875 4.185625 7.14375 4.37125 6.1875 4.5625 C2.76212803 6.10727559 2.4794021 6.38621238 1.125 9.625 C0.75375 10.73875 0.3825 11.8525 0 13 C-0.66 13 -1.32 13 -2 13 C-2.05447047 11.58376784 -2.09300508 10.16691809 -2.125 8.75 C-2.14820312 7.96109375 -2.17140625 7.1721875 -2.1953125 6.359375 C-1.9828378 3.79268059 -1.28654105 2.2083933 0 0 Z " fill="#FBF6CF" transform="translate(125,60)"/>
<path d="M0 0 C0 0.66 0 1.32 0 2 C0.59167969 2.12117188 1.18335937 2.24234375 1.79296875 2.3671875 C10.72895704 4.26225843 10.72895704 4.26225843 14 6 C14.33 6.99 14.66 7.98 15 9 C14.39414063 8.80664062 13.78828125 8.61328125 13.1640625 8.4140625 C7.15724758 6.54732925 1.18149693 5.14279775 -5 4 C-6.66711355 3.66890892 -8.33390283 3.33616828 -10 3 C-10 2.67 -10 2.34 -10 2 C-3.375 0 -3.375 0 0 0 Z " fill="#46AACA" transform="translate(77,125)"/>
<path d="M0 0 C5.61 0.33 11.22 0.66 17 1 C17 2.32 17 3.64 17 5 C9.08 5.495 9.08 5.495 1 6 C1 5.67 1 5.34 1 5 C5.95 4.01 5.95 4.01 11 3 C7.37 2.34 3.74 1.68 0 1 C0 0.67 0 0.34 0 0 Z " fill="#F0E3B8" transform="translate(139,78)"/>
<path d="M0 0 C0.66 0 1.32 0 2 0 C2 1.32 2 2.64 2 4 C1.34 4 0.68 4 0 4 C-0.144375 4.61875 -0.28875 5.2375 -0.4375 5.875 C-1 8 -1 8 -2 10 C-2.66 10 -3.32 10 -4 10 C-4.33 10.99 -4.66 11.98 -5 13 C-7.5625 14.1875 -7.5625 14.1875 -10 15 C-8.37940026 11.45493808 -6.27370948 8.40978743 -4 5.25 C-3.29875 4.26515625 -2.5975 3.2803125 -1.875 2.265625 C-0.946875 1.14414063 -0.946875 1.14414063 0 0 Z " fill="#D9F8ED" transform="translate(152,109)"/>
<path d="M0 0 C4.3177458 0.50797009 8.03302114 1.19682779 12 3 C12 3.66 12 4.32 12 5 C12.66 5 13.32 5 14 5 C14 5.66 14 6.32 14 7 C14.66 7 15.32 7 16 7 C15.67 7.99 15.34 8.98 15 10 C13.68 9.34 12.36 8.68 11 8 C11 7.34 11 6.68 11 6 C10.113125 5.731875 9.22625 5.46375 8.3125 5.1875 C5.22203785 4.07959847 2.71209548 2.83465282 0 1 C0 0.67 0 0.34 0 0 Z " fill="#97BC64" transform="translate(69,86)"/>
<path d="M0 0 C1.98 0 3.96 0 6 0 C6 2.64 6 5.28 6 8 C4.33388095 8.042721 2.66617115 8.04063832 1 8 C0 7 0 7 -0.0625 3.4375 C-0.041875 2.303125 -0.02125 1.16875 0 0 Z " fill="#DEA737" transform="translate(129,66)"/>
<path d="M0 0 C3.96 0 7.92 0 12 0 C11.01 0.33 10.02 0.66 9 1 C8.67 1.99 8.34 2.98 8 4 C10.31 4.66 12.62 5.32 15 6 C14.34 6.66 13.68 7.32 13 8 C9.375 7.625 9.375 7.625 6 7 C5.67 5.68 5.34 4.36 5 3 C4.360625 2.87625 3.72125 2.7525 3.0625 2.625 C2.381875 2.41875 1.70125 2.2125 1 2 C0.67 1.34 0.34 0.68 0 0 Z " fill="#8AB550" transform="translate(61,79)"/>
<path d="M0 0 C1 2 1 2 0.3125 4.375 C-1.11926367 7.23852733 -2.52683491 8.97650129 -5 11 C-5.99 11 -6.98 11 -8 11 C-8 12.32 -8 13.64 -8 15 C-8.99 15 -9.98 15 -11 15 C-9.58319756 10.67953102 -7.46236215 7.99538801 -4.375 4.6875 C-3.55773437 3.80449219 -2.74046875 2.92148437 -1.8984375 2.01171875 C-0.95871094 1.01591797 -0.95871094 1.01591797 0 0 Z " fill="#F3E1EC" transform="translate(122,53)"/>
<path d="M0 0 C0.99 0.33 1.98 0.66 3 1 C2.21681311 4.91593446 0.60820142 8.36406635 -1 12 C-3.64 12 -6.28 12 -9 12 C-9 11.67 -9 11.34 -9 11 C-7.35 10.67 -5.7 10.34 -4 10 C-3.79503906 9.36191406 -3.59007812 8.72382813 -3.37890625 8.06640625 C-3.10949219 7.24011719 -2.84007812 6.41382812 -2.5625 5.5625 C-2.16224609 4.32693359 -2.16224609 4.32693359 -1.75390625 3.06640625 C-1 1 -1 1 0 0 Z " fill="#76AD96" transform="translate(139,120)"/>
<path d="M0 0 C1.45880109 0.14107747 2.91703551 0.28802415 4.375 0.4375 C5.59316406 0.55931641 5.59316406 0.55931641 6.8359375 0.68359375 C9 1 9 1 11 2 C10.67 3.32 10.34 4.64 10 6 C8.02 4.68 6.04 3.36 4 2 C4.66 3.98 5.32 5.96 6 8 C4.1875 8.625 4.1875 8.625 2 9 C1.01 8.34 0.02 7.68 -1 7 C0.32 7 1.64 7 3 7 C3 6.01 3 5.02 3 4 C2.34 4 1.68 4 1 4 C0.67 2.68 0.34 1.36 0 0 Z " fill="#EDF4DD" transform="translate(69,56)"/>
<path d="M0 0 C1.9375 0.875 1.9375 0.875 4 2 C4.99 2.33 5.98 2.66 7 3 C6.67 4.98 6.34 6.96 6 9 C3.03 7.35 0.06 5.7 -3 4 C-2.67 3.01 -2.34 2.02 -2 1 C-1.34 0.67 -0.68 0.34 0 0 Z " fill="#F1E6F3" transform="translate(85,49)"/>
<path d="M0 0 C2.31 0 4.62 0 7 0 C6.67 0.66 6.34 1.32 6 2 C5.34 2 4.68 2 4 2 C3.773125 2.515625 3.54625 3.03125 3.3125 3.5625 C1.51018245 6.90966116 -0.61282504 10.03890492 -3 13 C-3.33 13 -3.66 13 -4 13 C-4.25 10.75 -4.25 10.75 -4 8 C-2.68733482 6.64631404 -1.35432675 5.31200404 0 4 C0 2.68 0 1.36 0 0 Z " fill="#71AE95" transform="translate(148,107)"/>
<path d="M0 0 C-2.97 2.31 -5.94 4.62 -9 7 C-12.48763093 5.25618453 -15.03368051 3.47193291 -18 1 C-14.37 1.33 -10.74 1.66 -7 2 C-6.67 1.34 -6.34 0.68 -6 0 C-2.49056604 -1.24528302 -2.49056604 -1.24528302 0 0 Z " fill="#409BB5" transform="translate(110,133)"/>
<path d="M0 0 C0.99 0 1.98 0 3 0 C3 1.32 3 2.64 3 4 C0.11584117 5.44207941 -2.41721528 5.09394887 -5.625 5.0625 C-6.81351562 5.05347656 -8.00203125 5.04445313 -9.2265625 5.03515625 C-10.14179687 5.02355469 -11.05703125 5.01195313 -12 5 C-11.360625 4.690625 -10.72125 4.38125 -10.0625 4.0625 C-8.06389179 3.1654837 -8.06389179 3.1654837 -7 2 C-4.66702567 1.95907063 -2.33294775 1.95758277 0 2 C0 1.34 0 0.68 0 0 Z " fill="#EAFCD1" transform="translate(72,73)"/>
<path d="M0 0 C0.33 0.66 0.66 1.32 1 2 C0.67 2.66 0.34 3.32 0 4 C-0.66 4 -1.32 4 -2 4 C-2.103125 4.825 -2.20625 5.65 -2.3125 6.5 C-3.11646056 10.59289012 -4.46352158 14.12540225 -6 18 C-7.10115546 14.69653363 -6.8854171 13.40145589 -6.1875 10.0625 C-6.01605469 9.20785156 -5.84460938 8.35320312 -5.66796875 7.47265625 C-5.01434305 5.05309444 -4.34751448 3.11347008 -3 1 C-2.01 0.67 -1.02 0.34 0 0 Z " fill="#FBF1CF" transform="translate(115,70)"/>
<path d="M0 0 C0.99 0 1.98 0 3 0 C3 1.32 3 2.64 3 4 C2.01 4.495 2.01 4.495 1 5 C1 6.32 1 7.64 1 9 C0.34 9 -0.32 9 -1 9 C-1 8.01 -1 7.02 -1 6 C-3.97 5.505 -3.97 5.505 -7 5 C-7 3.68 -7 2.36 -7 1 C-6.34 1.66 -5.68 2.32 -5 3 C-2.93125966 3.6425235 -2.93125966 3.6425235 -1 4 C-0.67 2.68 -0.34 1.36 0 0 Z " fill="#EEFAF5" transform="translate(157,100)"/>
<path d="M0 0 C0.33 0 0.66 0 1 0 C1 2.31 1 4.62 1 7 C1.66 6.67 2.32 6.34 3 6 C3.65555119 3.47266765 3.65555119 3.47266765 4 1 C4.33 1 4.66 1 5 1 C5.33 4.63 5.66 8.26 6 12 C1 10 1 10 0 9 C-0.07179964 7.48071962 -0.08392007 5.95832518 -0.0625 4.4375 C-0.05347656 3.61121094 -0.04445313 2.78492187 -0.03515625 1.93359375 C-0.02355469 1.29550781 -0.01195313 0.65742187 0 0 Z " fill="#F6E4AE" transform="translate(122,66)"/>
<path d="M0 0 C0 1.65 0 3.3 0 5 C-1.32 5.33 -2.64 5.66 -4 6 C-7 2.25 -7 2.25 -7 0 C-3.98968256 -0.93423645 -3.13349732 -1.04449911 0 0 Z " fill="#8AB846" transform="translate(71,66)"/>
<path d="M0 0 C0 2 0 2 -1 3.5625 C-4.12434729 5.80812461 -7.19781708 5.68834566 -11 6 C-11 5.01 -11 4.02 -11 3 C-4.5 0 -4.5 0 0 0 Z " fill="#DEF6EA" transform="translate(120,135)"/>
<path d="M0 0 C2.33333333 2.33333333 4.66666667 4.66666667 7 7 C7 7.99 7 8.98 7 10 C7.66 10 8.32 10 9 10 C8.67 10.66 8.34 11.32 8 12 C7.34 11.67 6.68 11.34 6 11 C6 10.34 6 9.68 6 9 C5.01 8.67 4.02 8.34 3 8 C2.67 7.01 2.34 6.02 2 5 C1.01 4.67 0.02 4.34 -1 4 C-0.67 2.68 -0.34 1.36 0 0 Z " fill="#D6F4EB" transform="translate(49,112)"/>
<path d="M0 0 C-0.66 0 -1.32 0 -2 0 C-1.67 0.99 -1.34 1.98 -1 3 C-5.29 3 -9.58 3 -14 3 C-14 2.34 -14 1.68 -14 1 C-12.41913952 0.63495397 -10.83516093 0.28339494 -9.25 -0.0625 C-8.36828125 -0.25972656 -7.4865625 -0.45695312 -6.578125 -0.66015625 C-4.01320972 -0.99825872 -2.42908361 -0.81158635 0 0 Z " fill="#ABBD93" transform="translate(58,80)"/>
<path d="M0 0 C0.33 0 0.66 0 1 0 C1 4.62 1 9.24 1 14 C0.34 14 -0.32 14 -1 14 C-2.18005182 10.31233808 -2.20993972 6.84889483 -2 3 C-1.34 2.01 -0.68 1.02 0 0 Z " fill="#F9FBF8" transform="translate(103,98)"/>
<path d="M0 0 C-1.43160268 1.00842453 -2.87051453 2.00647891 -4.3125 3 C-5.11300781 3.556875 -5.91351563 4.11375 -6.73828125 4.6875 C-9 6 -9 6 -12 6 C-12.66 5.34 -13.32 4.68 -14 4 C-12.42466914 3.13116294 -10.83935491 2.28040932 -9.25 1.4375 C-8.36828125 0.96183594 -7.4865625 0.48617187 -6.578125 -0.00390625 C-3.79298812 -1.07998186 -2.73019786 -1.06528748 0 0 Z " fill="#A27896" transform="translate(130,49)"/>
<path d="M0 0 C3 2 3 2 3.6875 5.125 C3.790625 6.07375 3.89375 7.0225 4 8 C3.34 8 2.68 8 2 8 C2 8.99 2 9.98 2 11 C-0.89259169 9.55370416 -0.97829314 8.06512057 -2 5 C-1.0625 2.3125 -1.0625 2.3125 0 0 Z " fill="#E0F5F1" transform="translate(58,124)"/>
<path d="M0 0 C0.33 0.99 0.66 1.98 1 3 C1.66 3 2.32 3 3 3 C3 2.34 3 1.68 3 1 C3.66 1 4.32 1 5 1 C3.55754029 4.36573933 1.916532 6.75010389 -1 9 C-3.75 8.75 -3.75 8.75 -6 8 C-6 7.34 -6 6.68 -6 6 C-4.02 6 -2.04 6 0 6 C0 4.02 0 2.04 0 0 Z " fill="#D6F8F3" transform="translate(104,106)"/>
<path d="M0 0 C-0.33 0.99 -0.66 1.98 -1 3 C-1.99 3.33 -2.98 3.66 -4 4 C-4 3.01 -4 2.02 -4 1 C-4.56203125 1.33773437 -5.1240625 1.67546875 -5.703125 2.0234375 C-8.39726644 3.1689058 -9.88038233 3.0470026 -12.75 2.625 C-13.54921875 2.51414063 -14.3484375 2.40328125 -15.171875 2.2890625 C-15.77515625 2.19367188 -16.3784375 2.09828125 -17 2 C-17 1.67 -17 1.34 -17 1 C-11.33357449 -0.22517308 -5.76291482 -0.09228867 0 0 Z " fill="#D6F5EA" transform="translate(137,133)"/>
<path d="M0 0 C4.29 0 8.58 0 13 0 C11 5 11 5 8 7 C8 5.02 8 3.04 8 1 C5.36 1 2.72 1 0 1 C0 0.67 0 0.34 0 0 Z " fill="#57AAC2" transform="translate(136,99)"/>
<path d="M0 0 C1.18311902 3.54935705 0.78103361 4.24874572 -0.6875 7.5625 C-1.02136719 8.34753906 -1.35523437 9.13257812 -1.69921875 9.94140625 C-3.1992778 12.31537358 -4.41839592 12.99453315 -7 14 C-6.731875 13.505 -6.46375 13.01 -6.1875 12.5 C-4.83965462 9.66243079 -3.81080874 6.77026431 -2.78125 3.8046875 C-2 2 -2 2 0 0 Z " fill="#F1A42F" transform="translate(119,69)"/>
<path d="M0 0 C0.33 0.66 0.66 1.32 1 2 C1.99 2.33 2.98 2.66 4 3 C3.360625 3.391875 2.72125 3.78375 2.0625 4.1875 C-0.43778819 6.38472296 -0.64950425 7.75791433 -1 11 C-2.54571278 8.68143083 -3.79618552 6.49361571 -5 4 C-4.01 3.67 -3.02 3.34 -2 3 C-1.34 2.01 -0.68 1.02 0 0 Z " fill="#1AA1D6" transform="translate(112,108)"/>
<path d="M0 0 C1.75128818 0.28382946 3.50100003 0.57739529 5.25 0.875 C6.71179688 1.11863281 6.71179688 1.11863281 8.203125 1.3671875 C10.77264117 1.94855848 12.72071056 2.70840265 15 4 C15 4.66 15 5.32 15 6 C12.68448903 5.57872639 10.37259645 5.13751879 8.0625 4.6875 C6.77472656 4.44386719 5.48695312 4.20023437 4.16015625 3.94921875 C2.59587891 3.47935547 2.59587891 3.47935547 1 3 C0.67 2.01 0.34 1.02 0 0 Z " fill="#EEFCF7" transform="translate(75,99)"/>
<path d="M0 0 C0.33 0 0.66 0 1 0 C1.0810206 2.10353495 1.13919907 4.20795952 1.1875 6.3125 C1.22230469 7.48425781 1.25710937 8.65601562 1.29296875 9.86328125 C1 13 1 13 -0.51171875 14.91796875 C-1.00285156 15.27503906 -1.49398437 15.63210937 -2 16 C-2.20674944 10.21101581 -1.59162079 5.57067277 0 0 Z " fill="#F6DBE9" transform="translate(103,85)"/>
<path d="M0 0 C-0.928125 0.680625 -0.928125 0.680625 -1.875 1.375 C-4.05919833 2.97108919 -4.05919833 2.97108919 -6 5 C-6.99 5.66 -7.98 6.32 -9 7 C-9 6.34 -9 5.68 -9 5 C-9.66 4.67 -10.32 4.34 -11 4 C-7.26280719 0.48264206 -5.13496308 -0.47767098 0 0 Z " fill="#C1EAED" transform="translate(112,135)"/>
<path d="M0 0 C-1.83491188 4.74018901 -3.91941459 9.36413251 -6 14 C-7.15006091 10.62700256 -6.85199953 8.65146785 -5.6875 5.3125 C-5.42324219 4.52488281 -5.15898437 3.73726563 -4.88671875 2.92578125 C-3.70539564 0.36017644 -2.78994982 0 0 0 Z " fill="#389DBC" transform="translate(142,108)"/>
<path d="M0 0 C2.64 0 5.28 0 8 0 C7.67 1.32 7.34 2.64 7 4 C6.34 4 5.68 4 5 4 C4.67 5.65 4.34 7.3 4 9 C3.34 8.34 2.68 7.68 2 7 C2.66 5.68 3.32 4.36 4 3 C2.35 2.67 0.7 2.34 -1 2 C-0.67 1.34 -0.34 0.68 0 0 Z " fill="#DBF3F1" transform="translate(145,96)"/>
<path d="M0 0 C3.63 1.65 7.26 3.3 11 5 C11 5.33 11 5.66 11 6 C4.63636364 6.48951049 4.63636364 6.48951049 1.5625 4.125 C0 2 0 2 0 0 Z " fill="#E8F9CE" transform="translate(69,87)"/>
<path d="M0 0 C-0.33 0.66 -0.66 1.32 -1 2 C-5.94877422 3.05390562 -11.11052208 3.46684337 -16 2 C-16 1.67 -16 1.34 -16 1 C-10.62915894 0.31798844 -5.41499441 -0.11521265 0 0 Z " fill="#FEF8DD" transform="translate(155,83)"/>
<path d="M0 0 C0.33 0 0.66 0 1 0 C1 2.64 1 5.28 1 8 C-0.65 8.33 -2.3 8.66 -4 9 C-3.52418802 7.68628013 -3.04424851 6.37405454 -2.5625 5.0625 C-2.29566406 4.33160156 -2.02882812 3.60070312 -1.75390625 2.84765625 C-1 1 -1 1 0 0 Z " fill="#D1F5E7" transform="translate(141,124)"/>
<path d="M0 0 C0.99 0.33 1.98 0.66 3 1 C1.38405168 3.04119788 -0.2856382 5.04072937 -2 7 C-2.66 7 -3.32 7 -4 7 C-4.33 7.99 -4.66 8.98 -5 10 C-4.67 8.02 -4.34 6.04 -4 4 C-3.01 3.67 -2.02 3.34 -1 3 C-0.67 2.01 -0.34 1.02 0 0 Z " fill="#FBF2D5" transform="translate(122,57)"/>
<path d="M0 0 C1.32 0.99 2.64 1.98 4 3 C3.67 3.33 3.34 3.66 3 4 C2.95907063 6.33297433 2.95758277 8.66705225 3 11 C1.68 10.67 0.36 10.34 -1 10 C-0.67 6.7 -0.34 3.4 0 0 Z " fill="#FDECFB" transform="translate(92,48)"/>
<path d="M0 0 C1.74325447 2.6148817 2.41587957 4.0053433 3.125 6.9375 C3.29257813 7.60652344 3.46015625 8.27554688 3.6328125 8.96484375 C4 11 4 11 4 15 C3.01 14.67 2.02 14.34 1 14 C0.67 9.38 0.34 4.76 0 0 Z " fill="#A3C473" transform="translate(89,82)"/>
<path d="M0 0 C0.66 0 1.32 0 2 0 C1.88490339 1.41750563 1.75746342 2.83401169 1.625 4.25 C1.55539063 5.03890625 1.48578125 5.8278125 1.4140625 6.640625 C0.98492887 9.085877 0.21399362 10.84836903 -1 13 C-2.40742022 10.18515955 -1.66652164 8.43063887 -1.0625 5.375 C-0.86785156 4.37210937 -0.67320313 3.36921875 -0.47265625 2.3359375 C-0.31667969 1.56507812 -0.16070312 0.79421875 0 0 Z " fill="#E9A42D" transform="translate(110,86)"/>
<path d="M0 0 C0.66 0 1.32 0 2 0 C1.125 4.75 1.125 4.75 0 7 C0.66 7 1.32 7 2 7 C2.33 6.34 2.66 5.68 3 5 C2.42655063 7.86724686 2.1385485 8.8614515 0 11 C-1.42944945 8.64561267 -2.08661261 7.51967567 -1.625 4.75 C-1.41875 4.1725 -1.2125 3.595 -1 3 C-0.34 3 0.32 3 1 3 C0.67 2.01 0.34 1.02 0 0 Z " fill="#90C04F" transform="translate(86,88)"/>
<path d="M0 0 C4.29 0.99 8.58 1.98 13 3 C13 3.33 13 3.66 13 4 C9.37 4 5.74 4 2 4 C1.34 2.68 0.68 1.36 0 0 Z " fill="#E6F7D0" transform="translate(56,83)"/>
<path d="M0 0 C2.125 0.375 2.125 0.375 4 1 C2.68 1.33 1.36 1.66 0 2 C0.66 4.31 1.32 6.62 2 9 C1.01 9.33 0.02 9.66 -1 10 C-2.38125018 7.23749964 -2.19079306 5.05268901 -2 2 C-1.34 1.34 -0.68 0.68 0 0 Z " fill="#9A6189" transform="translate(97,49)"/>
<path d="M0 0 C2.375 0.3125 2.375 0.3125 5 1 C5.66 1.99 6.32 2.98 7 4 C6.34 4 5.68 4 5 4 C4.67 4.66 4.34 5.32 4 6 C2 4.6875 2 4.6875 0 3 C0 2.01 0 1.02 0 0 Z " fill="#C9E2E7" transform="translate(92,136)"/>
<path d="M0 0 C3.2645028 3.2645028 3.93236055 7.41047299 4.125 11.9375 C4.08375 12.618125 4.0425 13.29875 4 14 C3.34 13.67 2.68 13.34 2 13 C1.3671875 11.07421875 1.3671875 11.07421875 0.875 8.6875 C0.70742187 7.90761719 0.53984375 7.12773438 0.3671875 6.32421875 C0 4 0 4 0 0 Z " fill="#F1D4EB" transform="translate(93,76)"/>
<path d="M0 0 C0.99 0.33 1.98 0.66 3 1 C4.1875 3.5625 4.1875 3.5625 5 6 C4.01 6.66 3.02 7.32 2 8 C0.23537317 4.91190305 0 3.76687864 0 0 Z " fill="#AA5CA1" transform="translate(89,64)"/>
<path d="M0 0 C2.475 0.495 2.475 0.495 5 1 C3.63016497 4.16115776 3.0109362 4.9927092 0 7 C0 4.69 0 2.38 0 0 Z " fill="#975C81" transform="translate(114,54)"/>
<path d="M0 0 C2.97 0.99 5.94 1.98 9 3 C9 4.65 9 6.3 9 8 C7.68388323 7.04663979 6.37221039 6.08714226 5.0625 5.125 C4.33160156 4.59132813 3.60070312 4.05765625 2.84765625 3.5078125 C1 2 1 2 0 0 Z " fill="#8B7187" transform="translate(73,49)"/>
<path d="M0 0 C3.66666667 0 7.33333333 0 11 0 C10.67 0.99 10.34 1.98 10 3 C7.03 3 4.06 3 1 3 C0.67 2.01 0.34 1.02 0 0 Z " fill="#ABE2DE" transform="translate(125,128)"/>
<path d="M0 0 C1 3 1 3 -0.1875 6.125 C-2 9 -2 9 -4.1875 9.875 C-5.0846875 9.936875 -5.0846875 9.936875 -6 10 C-5.34 9.67 -4.68 9.34 -4 9 C-3.32215008 6.66989091 -2.65583207 4.33640176 -2 2 C-1.34 1.34 -0.68 0.68 0 0 Z " fill="#C7F8F6" transform="translate(137,120)"/>
<path d="M0 0 C3.375 -0.125 3.375 -0.125 7 0 C7.66 0.66 8.32 1.32 9 2 C8.360625 2.12375 7.72125 2.2475 7.0625 2.375 C6.381875 2.58125 5.70125 2.7875 5 3 C4.67 3.66 4.34 4.32 4 5 C3.67 4.01 3.34 3.02 3 2 C2.01 2 1.02 2 0 2 C0 1.34 0 0.68 0 0 Z " fill="#74AD97" transform="translate(45,107)"/>
<path d="M0 0 C3.46941546 0.45822468 6.67395049 0.89131683 10 2 C10 2.99 10 3.98 10 5 C6.7 4.34 3.4 3.68 0 3 C0 2.01 0 1.02 0 0 Z " fill="#C9EDE4" transform="translate(146,104)"/>
<path d="M0 0 C2.475 0.99 2.475 0.99 5 2 C4.67 3.32 4.34 4.64 4 6 C3.01 6 2.02 6 1 6 C1 5.34 1 4.68 1 4 C0.34 4 -0.32 4 -1 4 C-0.67 2.68 -0.34 1.36 0 0 Z " fill="#AC5596" transform="translate(98,86)"/>
<path d="M0 0 C2.475 0.495 2.475 0.495 5 1 C4.67 2.32 4.34 3.64 4 5 C2.68 5 1.36 5 0 5 C0 3.35 0 1.7 0 0 Z " fill="#F1A526" transform="translate(129,68)"/>
<path d="M0 0 C0.66 0 1.32 0 2 0 C3.61949011 2.57213134 4.04408751 3.67669159 3.625 6.75 C3.41875 7.4925 3.2125 8.235 3 9 C2.67 8.34 2.34 7.68 2 7 C1.34 7 0.68 7 0 7 C0 4.69 0 2.38 0 0 Z " fill="#F5FEDB" transform="translate(74,65)"/>
<path d="M0 0 C0.33 0 0.66 0 1 0 C1.12375 1.134375 1.2475 2.26875 1.375 3.4375 C1.684375 5.2009375 1.684375 5.2009375 2 7 C2.66 7.33 3.32 7.66 4 8 C4 8.99 4 9.98 4 11 C1.11562221 9.70700306 -0.87219421 8.34058637 -3 6 C-2.01 6 -1.02 6 0 6 C0 4.02 0 2.04 0 0 Z " fill="#EFC5E1" transform="translate(94,52)"/>
<path d="M0 0 C4.3177458 0.50797009 8.03302114 1.19682779 12 3 C12 3.33 12 3.66 12 4 C4.61538462 4.49230769 4.61538462 4.49230769 1.5 2 C1.005 1.34 0.51 0.68 0 0 Z " fill="#DAF3E3" transform="translate(76,134)"/>
<path d="M0 0 C0.99 0.495 0.99 0.495 2 1 C2 1.99 2 2.98 2 4 C2.66 4 3.32 4 4 4 C4.625 6.375 4.625 6.375 5 9 C4.34 9.66 3.68 10.32 3 11 C2.49384702 9.73160474 1.99530901 8.46016898 1.5 7.1875 C1.2215625 6.47980469 0.943125 5.77210937 0.65625 5.04296875 C0 3 0 3 0 0 Z " fill="#41A1C1" transform="translate(63,116)"/>
<path d="M0 0 C-0.33 0.99 -0.66 1.98 -1 3 C-4.68754757 2.50168276 -6.60490662 1.89932357 -9 -1 C-5.38055101 -2.34053666 -3.42632833 -1.61798838 0 0 Z " fill="#3CA9CE" transform="translate(90,108)"/>
<path d="M0 0 C1.32 1.32 2.64 2.64 4 4 C3.67 4.66 3.34 5.32 3 6 C5.97 6.495 5.97 6.495 9 7 C9 7.33 9 7.66 9 8 C5.625 8.1875 5.625 8.1875 2 8 C-0.1519437 4.77208445 -0.20086443 3.71599191 0 0 Z " fill="#A1BB76" transform="translate(63,67)"/>
<path d="M0 0 C0.66 0.33 1.32 0.66 2 1 C-0.13478166 4.20217249 -1.62795029 5.27285259 -5 7 C-5.99 7 -6.98 7 -8 7 C-5.36 4.69 -2.72 2.38 0 0 Z " fill="#4DA9BC" transform="translate(110,108)"/>
<path d="M0 0 C0 0.99 0 1.98 0 3 C-0.66 3 -1.32 3 -2 3 C-2.66 4.98 -3.32 6.96 -4 9 C-4.33 8.34 -4.66 7.68 -5 7 C-5.66 6.67 -6.32 6.34 -7 6 C-4.69 4.02 -2.38 2.04 0 0 Z " fill="#D0B88D" transform="translate(127,57)"/>
<path d="M0 0 C1.9453125 -0.29296875 1.9453125 -0.29296875 4.125 -0.1875 C5.40375 -0.125625 6.6825 -0.06375 8 0 C4.99382731 3.00617269 2.17618402 2.59585316 -2 3 C-1.34 2.01 -0.68 1.02 0 0 Z " fill="#BFF7FA" transform="translate(120,129)"/>
<path d="M0 0 C-0.33 0.99 -0.66 1.98 -1 3 C-2.65 3 -4.3 3 -6 3 C-6.33 4.32 -6.66 5.64 -7 7 C-7.33 5.68 -7.66 4.36 -8 3 C-4.93882432 0.37613513 -4.26826873 0 0 0 Z " fill="#2AA5D0" transform="translate(144,106)"/>
<path d="M0 0 C1.65 0 3.3 0 5 0 C4.01 0.495 4.01 0.495 3 1 C3 1.66 3 2.32 3 3 C1.02 3.99 -0.96 4.98 -3 6 C-2.67 4.68 -2.34 3.36 -2 2 C-1.34 2 -0.68 2 0 2 C0 1.34 0 0.68 0 0 Z " fill="#DFAE4D" transform="translate(119,90)"/>
<path d="M0 0 C1.98 0.495 1.98 0.495 4 1 C4 2.32 4 3.64 4 5 C2.35 5 0.7 5 -1 5 C-0.67 3.35 -0.34 1.7 0 0 Z " fill="#F0FCF8" transform="translate(140,71)"/>
<path d="M0 0 C-4.75 3.875 -4.75 3.875 -7 5 C-7.33 4.01 -7.66 3.02 -8 2 C-5.14066998 -0.85933002 -3.8625627 -1.2875209 0 0 Z " fill="#F6D7EA" transform="translate(116,53)"/>
<path d="M0 0 C2.97 1.32 5.94 2.64 9 4 C5.59068103 5.13643966 4.99664544 4.86747764 1.8125 3.5625 C1.09707031 3.27503906 0.38164063 2.98757812 -0.35546875 2.69140625 C-0.89816406 2.46324219 -1.44085938 2.23507813 -2 2 C-1.34 1.34 -0.68 0.68 0 0 Z " fill="#9AB3A9" transform="translate(85,134)"/>
<path d="M0 0 C3.4375 0.8125 3.4375 0.8125 7 2 C7.33 2.99 7.66 3.98 8 5 C2.25 3.125 2.25 3.125 0 2 C0 1.34 0 0.68 0 0 Z " fill="#37A1BC" transform="translate(84,129)"/>
<path d="M0 0 C4.455 0.99 4.455 0.99 9 2 C6 4 6 4 2.8125 3.625 C1.884375 3.41875 0.95625 3.2125 0 3 C0 2.01 0 1.02 0 0 Z " fill="#B0F3F2" transform="translate(77,129)"/>
<path d="M0 0 C0.93065133 2.60582371 1.14917407 3.64198224 0.0625 6.25 C-0.4634375 7.11625 -0.4634375 7.11625 -1 8 C-1.66 8 -2.32 8 -3 8 C-2.25 2.25 -2.25 2.25 0 0 Z " fill="#13AAD1" transform="translate(136,112)"/>
<path d="M0 0 C2.64 0 5.28 0 8 0 C8.33 0.99 8.66 1.98 9 3 C6.03 2.67 3.06 2.34 0 2 C0 1.34 0 0.68 0 0 Z " fill="#F3FCE5" transform="translate(48,83)"/>
<path d="M0 0 C2.0625 1.75 2.0625 1.75 4 4 C3.75 6.25 3.75 6.25 3 8 C2.34 7.67 1.68 7.34 1 7 C0.59270772 4.67843403 0.25561323 2.3431213 0 0 Z " fill="#F3F9E0" transform="translate(89,78)"/>
<path d="M0 0 C2 3.75 2 3.75 2 6 C0.68 5.67 -0.64 5.34 -2 5 C-2 3.68 -2 2.36 -2 1 C-1.34 0.67 -0.68 0.34 0 0 Z " fill="#F9F7ED" transform="translate(82,59)"/>
<path d="M0 0 C1.32 0.33 2.64 0.66 4 1 C4 4 4 4 3 7 C0 2.25 0 2.25 0 0 Z " fill="#9D5785" transform="translate(81,53)"/>
<path d="M0 0 C0 3 0 3 -1.375 4.6875 C-3 6 -3 6 -5 6 C-4.1875 3.5625 -4.1875 3.5625 -3 1 C-2.01 0.67 -1.02 0.34 0 0 Z " fill="#ADE9EC" transform="translate(141,115)"/>
<path d="M0 0 C0 0.66 0 1.32 0 2 C-2.64 2.33 -5.28 2.66 -8 3 C-5.45189726 -0.82215411 -4.39145359 -1.46381786 0 0 Z " fill="#D3F9FC" transform="translate(136,98)"/>
<path d="M0 0 C2.875 -0.125 2.875 -0.125 6 0 C6.66 0.66 7.32 1.32 8 2 C4.7 2.33 1.4 2.66 -2 3 C-1.34 2.67 -0.68 2.34 0 2 C0 1.34 0 0.68 0 0 Z " fill="#CCAE65" transform="translate(144,80)"/>
<path d="M0 0 C0.66 0.66 1.32 1.32 2 2 C1.625 4.625 1.625 4.625 1 7 C0.01 7 -0.98 7 -2 7 C-1.34 4.69 -0.68 2.38 0 0 Z " fill="#F5E1F1" transform="translate(109,69)"/>
<path d="M0 0 C0.33 0.66 0.66 1.32 1 2 C0.67 2.66 0.34 3.32 0 4 C-0.66 4 -1.32 4 -2 4 C-2.33 5.98 -2.66 7.96 -3 10 C-4.10844919 6.67465243 -3.84454356 4.37817425 -3 1 C-2.01 0.67 -1.02 0.34 0 0 Z " fill="#FBE8BA" transform="translate(115,70)"/>
<path d="M0 0 C0.66 0 1.32 0 2 0 C2.33 0.99 2.66 1.98 3 3 C2.67 3.66 2.34 4.32 2 5 C3.98 5 5.96 5 8 5 C8 5.33 8 5.66 8 6 C5.69 6 3.38 6 1 6 C0.67 4.02 0.34 2.04 0 0 Z " fill="#B4E5DE" transform="translate(64,125)"/>
<path d="M0 0 C4.8 2.46153846 4.8 2.46153846 5.8125 5.1875 C5.874375 5.785625 5.93625 6.38375 6 7 C5.01 7 4.02 7 3 7 C2.67 5.35 2.34 3.7 2 2 C1.34 2 0.68 2 0 2 C0 1.34 0 0.68 0 0 Z " fill="#2D9ABF" transform="translate(89,109)"/>
<path d="M0 0 C0.66 0 1.32 0 2 0 C2 1.32 2 2.64 2 4 C1.34 4 0.68 4 0 4 C-0.33 4.99 -0.66 5.98 -1 7 C-1.99 6.34 -2.98 5.68 -4 5 C-2.71937515 3.2925002 -1.38232443 1.62626404 0 0 Z " fill="#CAEFE3" transform="translate(152,109)"/>
<path d="M0 0 C1.32 0.33 2.64 0.66 4 1 C2 4 2 4 -0.625 4.6875 C-1.800625 4.8421875 -1.800625 4.8421875 -3 5 C-2.67 4.01 -2.34 3.02 -2 2 C-1.34 2 -0.68 2 0 2 C0 1.34 0 0.68 0 0 Z " fill="#FCF5CD" transform="translate(122,91)"/>
<path d="M0 0 C2.0625 2.3125 2.0625 2.3125 4 5 C3 8 3 8 1 9 C0.67 6.03 0.34 3.06 0 0 Z " fill="#AC4D88" transform="translate(96,75)"/>
<path d="M0 0 C1.65 1.65 3.3 3.3 5 5 C4.67 5.99 4.34 6.98 4 8 C3.67 7.34 3.34 6.68 3 6 C2.34 6 1.68 6 1 6 C0.67 4.02 0.34 2.04 0 0 Z " fill="#F2D5EC" transform="translate(83,59)"/>
<path d="M0 0 C1.65 0 3.3 0 5 0 C5 0.99 5 1.98 5 3 C3.02 3.33 1.04 3.66 -1 4 C-0.67 2.68 -0.34 1.36 0 0 Z " fill="#F5FCEC" transform="translate(67,60)"/>
<path d="M0 0 C1.65 0 3.3 0 5 0 C5 0.99 5 1.98 5 3 C3.35 3.33 1.7 3.66 0 4 C0 2.68 0 1.36 0 0 Z " fill="#BC408C" transform="translate(97,52)"/>
</svg>
